<?xml version="1.0" standalone="no"?><!DOCTYPE svg PUBLIC "-//W3C//DTD SVG 1.1//EN" "http://www.w3.org/Graphics/SVG/1.1/DTD/svg11.dtd"><svg t="1585797981428" class="icon" viewBox="0 0 1024 1024" version="1.1" xmlns="http://www.w3.org/2000/svg" p-id="1330" xmlns:xlink="http://www.w3.org/1999/xlink" width="200" height="200"><defs><style type="text/css"></style></defs><path d="M776.8 817.2c16.8 0 30-13.6 30-30v-301.6c0-16.8-13.6-30-30-30H234.4c-16.8 0-30 13.6-30 30v301.6c0 16.8 13.6 30 30 30h542.4z m-2 58.8h-540c-49.6 0-90-40.4-90-90v-300c0-49.6 40.4-90 90-90h540c49.6 0 90 40.4 90 90v300c0 49.6-40 90-90 90z m2 1.6" fill="#ffffff" p-id="1331"></path><path d="M774.8 878h-540c-50.8 0-92-41.2-92-92v-300c0-50.8 41.2-92 92-92h540c50.8 0 92 41.2 92 92v300c0 50.8-41.2 92-92 92z m-540-480c-48.4 0-88 39.6-88 88v300c0 48.4 39.6 88 88 88h540c48.4 0 88-39.6 88-88v-300c0-48.4-39.6-88-88-88h-540z m542 421.2H234.4c-17.6 0-32-14.4-32-32v-301.6c0-17.6 14.4-32 32-32h542.4c17.6 0 32 14.4 32 32v301.6c0.4 17.6-14.4 32-32 32zM234.4 457.6c-15.6 0-28 12.8-28 28v301.6c0 15.6 12.8 28 28 28h542.4c15.6 0 28-12.8 28-28v-301.6c0-15.6-12.8-28-28-28H234.4z" fill="#ffffff" p-id="1332"></path><path d="M475.6 588c0-16.8 13.6-30 30-30 16.8 0 30 13.6 30 30v120.4c0 16.8-13.6 30-30 30-16.8 0-30-13.6-30-30V588z m-120.8-162.4c0 16.8-13.6 30-30 30-16.8 0-30-13.6-30-30V335.2c0-116.4 94.4-211.2 211.2-211.2s211.2 94.4 211.2 211.2v90.4c0 16.8-13.6 30-30 30-16.8 0-30-13.6-30-30V335.2c0-83.2-67.6-150.8-150.8-150.8-83.2 0-150.8 67.6-150.8 150.8v90.4z m0 0" fill="#ffffff" p-id="1333"></path><path d="M505.6 740.8c-17.6 0-32-14.4-32-32V588c0-17.6 14.4-32 32-32s32 14.4 32 32v120.4c0 18-14.4 32.4-32 32.4z m0-180.8c-15.6 0-28 12.8-28 28v120.4c0 15.6 12.8 28 28 28 15.6 0 28-12.8 28-28V588c0-15.2-12.4-28-28-28z m180.8-102.4c-17.6 0-32-14.4-32-32V335.2c0-82-66.8-148.8-148.8-148.8-82 0-148.8 66.8-148.8 148.8v90.4c0 17.6-14.4 32-32 32s-32-14.4-32-32V335.2c0-117.6 95.6-213.2 213.2-213.2s213.2 95.6 213.2 213.2v90.4c-0.8 17.6-15.2 32-32.8 32z m-180.8-275.2c84.4 0 152.8 68.4 152.8 152.8v90.4c0 15.6 12.8 28 28 28 15.6 0 28-12.8 28-28V335.2c0-115.2-93.6-209.2-209.2-209.2S296.4 219.6 296.4 335.2v90.4c0 15.6 12.8 28 28 28 15.6 0 28-12.8 28-28V335.2c0.4-84.4 68.8-152.8 153.2-152.8z" fill="#ffffff" p-id="1334"></path><path d="M504 560m-50 0a50 50 0 1 0 100 0 50 50 0 1 0-100 0Z" fill="#ffffff" p-id="1335"></path></svg>