<?xml version="1.0" standalone="no"?><!DOCTYPE svg PUBLIC "-//W3C//DTD SVG 1.1//EN" "http://www.w3.org/Graphics/SVG/1.1/DTD/svg11.dtd"><svg class="icon" width="200px" height="200.00px" viewBox="0 0 1024 1024" version="1.1" xmlns="http://www.w3.org/2000/svg"><path d="M254.1 887.4h112v-76.1c-0.8 0.3-1.6 0.5-2.4 0.5H260.9c-17.4 0-32.4-10.1-39.7-24.7v55.3c0 24.4 15.1 45 32.9 45zM782 887.4c17.8 0 32.9-20.6 32.9-45v-54.2c-7.5 14-22.1 23.6-39.1 23.6H673.1c-0.8 0-1.6-0.2-2.3-0.5v76.1H782z" fill="#FFD524" /><path d="M947.5 375.5L574.9 97.1c-33.9-25.8-81.5-26.2-116.1-0.9L429.7 118c-12.9 9.7-15.6 28-5.9 40.9 9.7 12.9 27.9 15.5 40.9 5.9l28.9-21.6c13.4-9.8 32.8-9.7 46.2 0.6l372.8 278.6c5.2 3.9 11.4 5.8 17.5 5.8 8.9 0 17.7-4 23.4-11.7 9.5-13.1 6.9-31.4-6-41zM377.1 223c6.1 0 12.2-1.9 17.5-5.8l5.3-3.9c12.9-9.7 15.6-28 5.9-40.9-9.7-12.9-28-15.5-40.9-5.9l-5.3 3.9c-12.9 9.7-15.6 28-5.9 40.9 5.8 7.6 14.5 11.7 23.4 11.7zM336.3 224.3c-9.7-12.9-28-15.5-40.9-5.9L75.7 382.8c-12.9 9.7-15.6 28-5.9 40.9 5.7 7.7 14.5 11.7 23.4 11.7 6.1 0 12.2-1.9 17.5-5.8l219.8-164.4c12.8-9.7 15.5-28 5.8-40.9zM844.1 446.3c-16.1 0-29.2 13.1-29.2 29.2v367c0 24.4-15.1 45-32.9 45H670.8V611.6c0-16.1-13.1-29.2-29.2-29.2H395.3c-16.1 0-29.2 13.1-29.2 29.2V887.4h-112c-17.8 0-32.9-20.6-32.9-45V475.8c0-16.1-13.1-29.2-29.2-29.2s-29.2 13.1-29.2 29.2v366.6c0 57 40.9 103.4 91.3 103.4h528c50.3 0 91.3-46.4 91.3-103.4V475.5c-0.1-16.1-13.2-29.2-29.3-29.2zM612.4 640.8v246.7H424.5V640.8h187.9z" fill="#333333" /></svg>