<?xml version="1.0" standalone="no"?><!DOCTYPE svg PUBLIC "-//W3C//DTD SVG 1.1//EN" "http://www.w3.org/Graphics/SVG/1.1/DTD/svg11.dtd"><svg class="icon" width="200px" height="200.00px" viewBox="0 0 1024 1024" version="1.1" xmlns="http://www.w3.org/2000/svg"><path d="M418.13 844.96c-6.26 0-12.6-1.85-18.12-5.73-14.32-10.03-17.8-29.75-7.77-44.07l373.02-532.58-180.24-126.34L212 669c-10.02 14.32-29.75 17.8-44.07 7.77-14.32-10.01-17.8-29.75-7.78-44.07L551.33 74a31.603 31.603 0 0 1 20.43-13.01c8.29-1.49 16.79 0.43 23.65 5.24l232.1 162.67c14.3 10.03 17.78 29.76 7.75 44.07L444.08 831.46c-6.15 8.8-15.97 13.5-25.95 13.5z"  /><path d="M162.65 963.1a31.59 31.59 0 0 1-18.14-5.73 31.639 31.639 0 0 1-13.4-28.54l23.21-280.82c1.01-12.14 8.9-22.62 20.28-26.97 11.39-4.29 24.26-1.71 33.09 6.68 7.79 7.42 11.01 17.91 9.52 27.84l-18.55 224.42 203.58-93.87c12.13-7.15 27.9-5.58 38.3 4.82l0.21 0.21a31.623 31.623 0 0 1 8.78 27.94c-1.81 10.18-8.5 18.83-17.89 23.18L175.91 960.2c-4.24 1.94-8.76 2.9-13.26 2.9zM691.5 450.38c-6.28 0-12.61-1.85-18.13-5.73L462.33 296.88c-14.32-10.02-17.8-29.75-7.77-44.07 10-14.33 29.74-17.8 44.07-7.77L709.67 392.8c14.32 10.02 17.8 29.75 7.77 44.07-6.16 8.81-15.97 13.51-25.94 13.51z"  /><path d="M860.02 904.14h-338.9c-17.48 0-31.65-14.18-31.65-31.65s14.17-31.65 31.65-31.65h338.9c17.47 0 31.65 14.18 31.65 31.65s-14.18 31.65-31.65 31.65z" fill="#E62330" /></svg>